<svg xmlns="http://www.w3.org/2000/svg" width="410" height="404" viewBox="0 0 410 404" fill="none">
  <path d="M399.641 59.5246L215.643 388.545C211.844 395.338 202.084 395.378 198.228 388.618L10.5817 59.5563C6.38087 52.1896 12.6802 43.2665 21.0281 44.7586L205.223 77.6824C206.398 77.8924 207.601 77.8904 208.776 77.6763L389.119 44.8058C397.439 43.2894 403.768 52.1434 399.65 59.5306L399.641 59.5246Z" fill="url(#paint0_linear)"/>
  <path d="M292.965 1.5744L156.801 28.2552C154.563 28.6937 152.98 30.6584 153.053 32.9443L157.007 155.273C157.087 157.742 159.316 159.593 161.76 159.141L208.679 150.536C211.227 150.065 213.435 152.249 212.931 154.817L201.31 214.951C200.797 217.572 203.136 219.844 205.726 219.16L231.207 212.452C233.798 211.767 236.137 214.04 235.623 216.661L217.355 313.502C216.67 317.213 221.478 319.285 223.508 316.041L225.159 313.427L323.156 95.6453C324.412 92.851 322.11 89.7335 319.046 90.3067L271.027 99.3596C268.479 99.8301 266.27 97.6456 266.774 95.0776L298.564 32.7279C299.799 30.1466 297.66 27.178 294.86 27.7436Z" fill="url(#paint1_linear)"/>
  <defs>
    <linearGradient id="paint0_linear" x1="6.00017" y1="32.9999" x2="235" y2="344" gradientUnits="userSpaceOnUse">
      <stop stop-color="#41D1FF"/>
      <stop offset="1" stop-color="#BD34FE"/>
    </linearGradient>
    <linearGradient id="paint1_linear" x1="194.651" y1="8.81818" x2="236.076" y2="292.989" gradientUnits="userSpaceOnUse">
      <stop stop-color="#FFEA83"/>
      <stop offset="0.0833333" stop-color="#FFDD35"/>
      <stop offset="1" stop-color="#FFA800"/>
    </linearGradient>
  </defs>
</svg>
